<?xml version="1.0" standalone="no"?>
<!DOCTYPE svg PUBLIC "-//W3C//DTD SVG 20010904//EN"
 "http://www.w3.org/TR/2001/REC-SVG-20010904/DTD/svg10.dtd">
<svg version="1.0" xmlns="http://www.w3.org/2000/svg"
 width="200.000000pt" height="200.000000pt" viewBox="0 0 200.000000 200.000000"
 preserveAspectRatio="xMidYMid meet">
<metadata>
Created by potrace 1.14, written by Peter Selinger 2001-2017
</metadata>
<g transform="translate(0.000000,200.000000) scale(0.100000,-0.100000)"
fill="#000000" stroke="none">
<path d="M467 1835 c-26 -7 -51 -13 -55 -15 -4 -1 -16 -6 -28 -10 -37 -15
-104 -92 -122 -142 -10 -30 -22 -46 -29 -44 -7 3 -15 1 -18 -5 -4 -5 -3 -9 2
-8 33 6 41 -24 13 -49 -8 -8 -10 -11 -3 -8 6 4 14 2 18 -4 3 -5 1 -10 -6 -10
-10 0 -10 -3 -1 -12 7 -7 8 -17 1 -30 -6 -12 -6 -18 1 -18 5 0 1 -9 -10 -20
-23 -23 -25 -36 -8 -46 7 -4 8 -3 4 4 -4 7 -2 20 4 29 8 14 9 8 6 -25 -4 -31
-2 -41 7 -35 9 5 9 3 0 -9 -7 -8 -10 -18 -6 -21 3 -4 1 -12 -4 -19 -12 -15
-13 -49 -2 -43 4 3 10 -2 13 -11 4 -12 2 -15 -9 -10 -13 5 -14 2 -3 -17 7 -12
11 -26 9 -32 -8 -25 -8 -41 1 -57 6 -13 5 -18 -6 -18 -8 0 -18 -5 -22 -12 -5
-8 -2 -9 10 -5 12 5 16 3 13 -5 -2 -7 0 -21 5 -32 6 -10 6 -16 1 -13 -11 7
-11 -99 0 -110 4 -4 -2 -15 -14 -23 -20 -16 -20 -18 -4 -33 15 -16 12 -22 -8
-18 -5 1 -6 -3 -2 -8 3 -6 13 -7 23 -4 11 4 9 0 -6 -13 l-23 -19 20 -27 21
-26 -23 -16 c-16 -12 -17 -16 -4 -12 19 6 24 -10 5 -17 -10 -4 -10 -6 0 -6 7
-1 10 -5 7 -11 -3 -5 -1 -10 6 -10 10 0 10 -3 1 -12 -7 -7 -8 -17 -1 -30 7
-14 6 -18 -5 -18 -8 0 -18 -5 -22 -12 -5 -8 -2 -9 10 -5 12 5 16 3 13 -5 -2
-7 0 -22 5 -33 7 -15 4 -14 -12 5 l-21 25 16 -32 c8 -18 13 -33 9 -33 -4 0 -1
-7 6 -15 15 -18 0 -20 -20 -2 -7 6 -4 -2 8 -19 12 -18 17 -35 13 -43 -5 -7 -6
-25 -4 -39 10 -77 10 -98 0 -111 -7 -8 -7 -12 -2 -9 6 3 15 0 22 -7 10 -11 10
-14 0 -18 -8 -3 -6 -10 7 -23 20 -19 20 -19 5 1 -13 18 -13 19 3 6 10 -7 15
-17 12 -22 -3 -5 0 -9 7 -9 7 0 9 -3 6 -6 -6 -7 60 -61 100 -82 12 -7 33 -13
47 -14 15 -1 26 -9 26 -17 0 -12 3 -12 12 -3 7 7 19 12 28 12 13 0 13 -1 0
-10 -8 -5 -10 -10 -4 -10 6 0 14 3 18 7 4 5 11 8 14 9 4 0 27 6 52 14 25 7 48
13 53 12 4 -1 7 2 7 6 0 14 48 32 67 26 14 -5 15 -4 4 4 -11 8 -10 12 8 21 12
7 27 9 33 5 6 -4 8 -3 5 3 -8 13 70 56 88 49 10 -3 12 0 8 11 -5 13 -2 15 15
11 12 -4 20 -1 19 5 -1 6 8 15 19 22 12 6 29 17 37 24 9 7 20 10 26 7 5 -3 11
-2 13 3 6 18 108 70 125 65 13 -4 14 -3 5 3 -9 7 0 16 35 34 26 13 50 27 53
30 12 15 51 29 62 23 7 -4 8 -3 4 5 -5 7 5 17 28 26 19 8 38 19 41 25 4 6 11
8 16 5 5 -4 9 -2 9 3 0 4 19 18 43 31 23 12 58 31 77 42 19 12 53 31 75 42
185 100 245 202 210 361 -10 46 -26 73 -75 122 -19 19 -820 485 -865 503 -5 2
-26 14 -45 26 -160 100 -246 130 -323 110z m108 -496 c-4 -5 -1 -9 6 -9 8 0 7
-5 -2 -16 -12 -15 -11 -16 7 -10 14 4 26 1 35 -11 9 -11 10 -14 2 -9 -7 4 -13
2 -13 -4 0 -8 -6 -8 -22 0 -21 10 -21 10 -6 -3 10 -8 14 -18 10 -23 -4 -4 0
-3 9 4 24 18 60 -1 55 -30 0 -4 9 -15 22 -23 21 -15 22 -42 1 -29 -5 3 -6 10
-3 16 4 7 2 8 -5 4 -6 -4 -9 -11 -6 -16 3 -4 -1 -10 -7 -13 -7 -2 -9 -8 -5
-13 4 -5 11 -4 15 2 8 12 36 12 39 1 1 -5 10 -15 20 -22 14 -10 15 -16 6 -25
-16 -18 -31 -5 -28 25 2 14 0 23 -5 20 -13 -8 -8 -54 7 -59 8 -3 24 -1 36 5
12 7 19 8 15 4 -5 -5 1 -15 12 -22 11 -8 18 -19 15 -24 -4 -5 1 -12 10 -15 10
-4 13 -13 9 -26 -4 -12 -2 -18 4 -15 17 11 8 -27 -12 -50 -14 -16 -23 -19 -32
-12 -8 7 -14 7 -19 -1 -4 -6 -1 -9 6 -8 6 2 14 -3 16 -9 3 -7 0 -13 -7 -13 -6
0 -8 -5 -4 -12 5 -7 2 -9 -9 -5 -11 4 -14 2 -11 -7 3 -7 -11 -34 -30 -60 -20
-25 -36 -51 -36 -57 0 -6 -6 -9 -12 -6 -7 2 -12 10 -10 16 1 7 -2 10 -8 6 -8
-5 -7 -12 2 -23 10 -12 10 -16 0 -19 -6 -3 -9 -10 -5 -16 4 -6 0 -8 -9 -4 -11
4 -15 0 -13 -11 1 -9 -8 -27 -21 -38 -12 -12 -20 -25 -17 -28 4 -3 1 -6 -6 -6
-8 0 -11 11 -10 28 2 15 0 33 -4 40 -5 7 -3 12 3 12 6 0 8 5 4 11 -3 6 -6 129
-4 273 3 346 3 355 12 350 5 -3 6 -10 3 -15z m-325 -13 c0 -3 -4 -8 -10 -11
-5 -3 -10 -1 -10 4 0 6 5 11 10 11 6 0 10 -2 10 -4z m1060 -270 c0 -5 3 -6 7
-3 3 4 15 -1 26 -10 10 -10 22 -17 26 -17 11 3 36 -20 39 -36 2 -8 0 -12 -4
-8 -4 4 -20 -2 -36 -13 -17 -12 -36 -18 -46 -14 -9 3 -13 3 -9 -1 9 -10 -12
-34 -30 -34 -9 0 -13 6 -9 15 3 8 0 14 -7 12 -7 -1 -12 6 -12 15 0 10 -7 23
-15 30 -12 11 -12 11 -1 -4 9 -12 10 -18 2 -18 -6 0 -11 2 -11 4 0 2 -3 11 -6
19 -3 10 3 17 20 21 14 3 26 11 26 17 0 8 -5 7 -15 -1 -20 -17 -19 -5 2 19 16
20 53 25 53 7z m-1070 -126 c0 -5 -2 -10 -4 -10 -3 0 -8 5 -11 10 -3 6 -1 10
4 10 6 0 11 -4 11 -10z m3 -86 c-4 -12 -8 -13 -14 -3 -9 15 -2 32 11 24 5 -3
6 -13 3 -21z"/>
<path d="M571 1244 c0 -11 3 -14 6 -6 3 7 2 16 -1 19 -3 4 -6 -2 -5 -13z"/>
<path d="M614 1249 c-4 -7 -2 -15 4 -17 7 -2 9 -9 6 -14 -4 -6 -2 -8 4 -4 6 3
13 2 17 -4 3 -5 -1 -10 -9 -10 -8 0 -17 -4 -20 -8 -2 -4 4 -8 15 -8 10 0 19 3
20 6 0 3 2 13 4 22 4 23 -30 54 -41 37z m27 -16 c13 -16 12 -17 -3 -4 -10 7
-18 15 -18 17 0 8 8 3 21 -13z"/>
<path d="M596 1217 c3 -10 9 -15 12 -12 3 3 0 11 -7 18 -10 9 -11 8 -5 -6z"/>
<path d="M670 1081 c0 -6 4 -13 10 -16 6 -3 7 1 4 9 -7 18 -14 21 -14 7z"/>
<path d="M721 1069 c-13 -10 -19 -19 -15 -19 13 1 48 29 43 34 -2 2 -15 -4
-28 -15z"/>
<path d="M765 1073 c3 -4 -4 -12 -16 -19 l-22 -12 22 -7 c22 -7 25 -33 6 -47
-5 -4 -6 -10 -2 -15 9 -8 28 17 21 28 -2 4 3 10 12 13 15 6 15 8 1 24 -9 9
-16 21 -15 25 0 5 -3 11 -6 13 -3 2 -4 1 -1 -3z m16 -40 c13 -17 13 -17 -6 -3
-11 8 -22 16 -24 17 -2 2 0 3 6 3 6 0 17 -8 24 -17z"/>
<path d="M710 1036 c0 -3 9 -10 20 -16 11 -6 20 -8 20 -6 0 3 -9 10 -20 16
-11 6 -20 8 -20 6z"/>
<path d="M710 1006 c0 -2 7 -7 16 -10 8 -3 12 -2 9 4 -6 10 -25 14 -25 6z"/>
<path d="M784 975 c-11 -22 -10 -23 7 -12 20 13 24 23 11 31 -4 2 -12 -6 -18
-19z"/>
<path d="M686 898 c3 -5 10 -6 15 -3 13 9 11 12 -6 12 -8 0 -12 -4 -9 -9z"/>
<path d="M1293 1038 c-6 -8 -6 -24 -2 -38 l8 -25 -2 25 c-1 14 2 31 6 38 5 6
6 12 4 12 -3 0 -9 -6 -14 -12z"/>
<path d="M1316 1034 c-7 -19 2 -37 15 -29 5 4 9 1 9 -4 0 -6 -7 -11 -15 -11
-8 0 -15 -5 -15 -10 0 -7 6 -7 20 0 11 6 20 15 20 21 0 6 5 7 12 3 8 -5 4 -13
-11 -26 -13 -10 -19 -18 -15 -18 5 1 20 10 33 20 19 17 21 23 11 35 -7 8 -16
13 -20 10 -5 -3 -15 1 -23 10 -13 13 -16 13 -21 -1z"/>
<path d="M190 1586 c0 -2 7 -7 16 -10 8 -3 12 -2 9 4 -6 10 -25 14 -25 6z"/>
<path d="M216 1516 c6 -15 4 -17 -6 -11 -9 6 -11 4 -5 -4 5 -9 10 -10 18 -2 8
8 7 14 -2 24 -10 10 -11 8 -5 -7z"/>
<path d="M176 1462 c-3 -4 4 -9 15 -9 23 -2 25 3 4 10 -8 4 -16 3 -19 -1z"/>
<path d="M195 1370 c-3 -6 1 -7 9 -4 18 7 21 14 7 14 -6 0 -13 -4 -16 -10z"/>
<path d="M174 1337 c-4 -7 -4 -9 1 -5 4 4 14 3 22 -3 8 -7 13 -8 13 -1 0 15
-28 23 -36 9z"/>
<path d="M193 1303 c4 -3 1 -13 -6 -22 -11 -14 -10 -14 6 -2 20 15 22 31 5 31
-6 0 -8 -3 -5 -7z"/>
<path d="M198 1243 c7 -3 16 -2 19 1 4 3 -2 6 -13 5 -11 0 -14 -3 -6 -6z"/>
<path d="M220 1230 c-8 -5 -12 -12 -9 -15 4 -3 12 1 19 10 14 17 11 19 -10 5z"/>
<path d="M200 1176 c0 -2 7 -7 16 -10 8 -3 12 -2 9 4 -6 10 -25 14 -25 6z"/>
<path d="M176 1162 c-3 -4 4 -9 15 -9 23 -2 25 3 4 10 -8 4 -16 3 -19 -1z"/>
<path d="M155 1131 c-3 -5 -2 -12 3 -15 5 -3 9 1 9 9 0 17 -3 19 -12 6z"/>
<path d="M214 1112 c8 -13 -28 -35 -39 -24 -5 4 -5 1 -1 -6 5 -9 13 -9 26 -2
26 14 33 27 19 36 -8 4 -9 3 -5 -4z"/>
<path d="M212 1021 c0 -17 1 -31 3 -31 7 0 12 39 5 49 -4 7 -7 -1 -8 -18z"/>
<path d="M199 978 c-6 -21 -5 -37 2 -32 5 3 7 9 4 14 -3 4 1 11 7 13 10 4 10
6 1 6 -7 1 -13 0 -14 -1z"/>
<path d="M174 922 c4 -3 14 -7 22 -8 9 -1 13 0 10 4 -4 3 -14 7 -22 8 -9 1
-13 0 -10 -4z"/>
<path d="M196 837 c3 -10 9 -15 12 -12 3 3 0 11 -7 18 -10 9 -11 8 -5 -6z"/>
<path d="M199 793 c-13 -17 -13 -17 6 -3 11 8 22 16 24 17 2 2 0 3 -6 3 -6 0
-17 -8 -24 -17z"/>
<path d="M174 762 c4 -3 14 -7 22 -8 9 -1 13 0 10 4 -4 3 -14 7 -22 8 -9 1
-13 0 -10 -4z"/>
<path d="M213 725 c0 -8 4 -15 9 -15 4 0 8 4 8 9 0 6 -4 12 -8 15 -5 3 -9 -1
-9 -9z"/>
<path d="M200 696 c0 -2 7 -7 16 -10 8 -3 12 -2 9 4 -6 10 -25 14 -25 6z"/>
<path d="M176 682 c-3 -4 4 -9 15 -9 23 -2 25 3 4 10 -8 4 -16 3 -19 -1z"/>
<path d="M155 651 c-3 -5 -2 -12 3 -15 5 -3 9 1 9 9 0 17 -3 19 -12 6z"/>
<path d="M176 598 c3 -4 11 -5 19 -1 21 7 19 12 -4 10 -11 0 -18 -5 -15 -9z"/>
<path d="M198 523 c7 -3 16 -2 19 1 4 3 -2 6 -13 5 -11 0 -14 -3 -6 -6z"/>
<path d="M220 510 c-8 -5 -12 -12 -9 -15 4 -3 12 1 19 10 14 17 11 19 -10 5z"/>
<path d="M186 482 c-3 -5 1 -9 9 -9 8 0 12 4 9 9 -3 4 -7 8 -9 8 -2 0 -6 -4
-9 -8z"/>
<path d="M206 445 c-9 -14 -22 -23 -28 -19 -7 4 -8 3 -4 -4 8 -13 36 -5 36 10
0 6 8 4 18 -3 15 -13 16 -12 4 3 -8 9 -11 22 -7 28 14 22 -4 9 -19 -15z"/>
<path d="M210 400 c0 -5 5 -10 10 -10 6 0 10 5 10 10 0 6 -4 10 -10 10 -5 0
-10 -4 -10 -10z"/>
<path d="M170 339 c0 -5 5 -7 10 -4 6 3 10 8 10 11 0 2 -4 4 -10 4 -5 0 -10
-5 -10 -11z"/>
<path d="M210 336 c0 -2 7 -9 15 -16 9 -7 15 -8 15 -2 0 5 -7 12 -15 16 -8 3
-15 4 -15 2z"/>
<path d="M236 287 c3 -10 9 -15 12 -12 3 3 0 11 -7 18 -10 9 -11 8 -5 -6z"/>
<path d="M213 265 c0 -8 4 -12 9 -9 5 3 6 10 3 15 -9 13 -12 11 -12 -6z"/>
<path d="M256 261 c-3 -5 1 -14 9 -21 10 -9 15 -9 15 -1 0 6 -5 11 -11 11 -5
0 -7 5 -4 10 3 6 4 10 1 10 -3 0 -7 -4 -10 -9z"/>
<path d="M291 233 c-1 -17 16 -25 25 -12 4 7 3 9 -4 5 -5 -3 -13 0 -15 6 -4 9
-6 10 -6 1z"/>
<path d="M236 222 c-3 -5 1 -9 9 -9 8 0 12 4 9 9 -3 4 -7 8 -9 8 -2 0 -6 -4
-9 -8z"/>
<path d="M270 216 c0 -2 8 -10 18 -17 15 -13 16 -12 3 4 -13 16 -21 21 -21 13z"/>
<path d="M342 193 c9 -10 13 -25 11 -33 -3 -10 0 -9 7 3 9 13 8 21 -4 32 -21
21 -32 19 -14 -2z"/>
<path d="M313 185 c0 -8 4 -15 9 -15 4 0 8 4 8 9 0 6 -4 12 -8 15 -5 3 -9 -1
-9 -9z"/>
<path d="M375 161 c-3 -5 0 -13 6 -17 7 -4 9 -3 5 4 -3 5 0 13 6 15 9 4 10 6
1 6 -6 1 -14 -3 -18 -8z"/>
<path d="M414 148 c-4 -7 -3 -8 5 -4 6 4 20 2 29 -6 15 -12 16 -11 3 5 -16 20
-27 22 -37 5z"/>
<path d="M516 113 c-6 -14 -5 -15 5 -6 7 7 10 15 7 18 -3 3 -9 -2 -12 -12z"/>
</g>
</svg>
